<?xml version="1.0" encoding="utf-8"?>
<!-- Generator: Adobe Illustrator 15.0.0, SVG Export Plug-In  -->
<!DOCTYPE svg PUBLIC "-//W3C//DTD SVG 1.1//EN" "http://www.w3.org/Graphics/SVG/1.1/DTD/svg11.dtd" [
	<!ENTITY ns_flows "http://ns.adobe.com/Flows/1.0/">
]>
<svg version="1.1"
	 xmlns="http://www.w3.org/2000/svg" xmlns:xlink="http://www.w3.org/1999/xlink" xmlns:a="http://ns.adobe.com/AdobeSVGViewerExtensions/3.0/"
	 x="0px" y="0px" width="69px" height="63px" viewBox="-0.088 -0.829 69 63" enable-background="new -0.088 -0.829 69 63"
	 xml:space="preserve">
<defs>
</defs>
<path fill="#FFFF00" d="M34.412,7.399c1.934,0,3.859,1.225,5.33,3.666l20.398,33.998c2.931,4.883,0.666,8.879-5.027,8.879H13.711
	c-5.693,0-7.961-4-5.024-8.879l20.398-33.998C30.551,8.624,32.477,7.399,34.412,7.399"/>
<path fill="#FF0000" stroke="#000000" stroke-miterlimit="10" d="M34.412,7.4c1.934,0,3.859,1.224,5.33,3.666l20.398,33.998
	c2.931,4.883,0.666,8.879-5.027,8.879H13.711c-5.693,0-7.961-4-5.024-8.879l20.398-33.998C30.551,8.624,32.477,7.4,34.412,7.4
	 M34.412,0.5c-4.471,0-8.563,2.554-11.244,7.009L2.77,41.515c-2.712,4.516-3.009,9.334-0.812,13.215
	c2.198,3.883,6.484,6.113,11.753,6.113h41.402c5.27,0,9.556-2.23,11.753-6.113c2.196-3.881,1.899-8.692-0.81-13.215L45.659,7.518
	C42.977,3.053,38.887,0.5,34.412,0.5z"/>
<circle fill="#FF0000" stroke="#000000" stroke-miterlimit="10" cx="34.412" cy="43.591" r="4.484"/>
<path fill="#FF0000" stroke="#000000" stroke-miterlimit="10" d="M39.587,22.889c0-2.864-2.312-5.175-5.174-5.175
	c-2.86,0-5.176,2.312-5.176,5.175c0,0.688,0.142,1.341,0.383,1.941c1.912,4.744,4.792,11.86,4.792,11.86s2.883-7.113,4.797-11.857
	C39.445,24.231,39.587,23.577,39.587,22.889z"/>
</svg>
