<?xml version="1.0" encoding="utf-8"?>
<!-- Generator: Adobe Illustrator 15.0.0, SVG Export Plug-In  -->
<!DOCTYPE svg PUBLIC "-//W3C//DTD SVG 1.1//EN" "http://www.w3.org/Graphics/SVG/1.1/DTD/svg11.dtd" [
	<!ENTITY ns_flows "http://ns.adobe.com/Flows/1.0/">
]>
<svg version="1.1"
	 xmlns="http://www.w3.org/2000/svg" xmlns:xlink="http://www.w3.org/1999/xlink" xmlns:a="http://ns.adobe.com/AdobeSVGViewerExtensions/3.0/"
	 x="0px" y="0px" width="307px" height="132px" viewBox="-0.056 -0.567 307 132" enable-background="new -0.056 -0.567 307 132"
	 xml:space="preserve">
<defs>
</defs>
<path fill-rule="evenodd" clip-rule="evenodd" fill="#FFFFFF" stroke="#005FA6" stroke-width="2.2623" stroke-linecap="square" stroke-linejoin="round" stroke-miterlimit="22.9256" d="
	M84.802,80.512c18.336,5.438,46.647,7.95,63.333,8.7c21.522,0.938,42.896,2.287,64.494,1.087
	c22.836-1.275,97.604-8.774,86.655-47.32c-4.463-15.75-31.46-31.949-46.31-35.473l1.051,5.287
	c8.438,5.137,14.962,10.235,21.673,17.361c10.011,10.686,11.849,19.574,4.425,26.736c-7.536,7.273-15.897,11.249-25.798,14.361
	c-20.324,6.337-42.971,7.461-67.27,7.087c-14.436-0.188-35.247-3.488-52.983-7.274c-8.024-1.725-13.686-3.975-23.698-8.437
	c-8.211-3.637-6.225-11.325,2.325-15.636c7.612-3.825,15.261-6.074,23.473-8.362c10.986-2.024,11.362-9.711,0-12.711
	c-10.274-2.662-20.923-3.862-31.535-4.575c-12.523-0.862-34.421,1.051-48.258,5.362C43.931,30.565,38.306,42.677,41.494,52.09
	C45.581,64.276,71.266,76.501,84.802,80.512L84.802,80.512z M50.418,77.475c2.211,3.037,2.699,3.75,3.524,6.938
	c-3.975-0.676-6.975-1.801-10.799-3.488C28.669,74.513,6.696,58.051,6.246,43.165c-0.6-18.561,27.186-32.022,43.572-35.997
	c21.486-5.249,51.934-6.037,63.933-6.037c19.985,0.037,74.469-0.263,108.515,10.875c19.763,6.449,47.922,18.485,43.535,37.872
	c-3.337,14.661-26.136,18.486-41.098,20.287c-15.936,1.911-32.358-0.638-51.258-4.65c-15.373-3.299-15.823-9.3,0.601-14.924
	l20.06-6.899c13.95-4.763,7.988-13.874-10.048-19.573c-19.574-6.188-42.673-9.9-57.708-10.462
	c-14.998-0.525-45.634-1.5-65.506,4.238C47.194,21.83,20.458,32.741,22.07,44.066C24.282,60.076,41.981,70.65,50.418,77.475z"/>
<path fill-rule="evenodd" clip-rule="evenodd" fill="#FFFFFF" stroke="#005FA6" stroke-width="1.6104" stroke-linecap="square" stroke-linejoin="round" stroke-miterlimit="22.9256" d="
	M277.719,97.458c24.898,0,28.086,7.275,28.086,16.236c0,8.963-3.6,16.273-28.086,16.273c-24.485,0-28.084-7.311-28.084-16.273
	C249.635,104.733,252.822,97.458,277.719,97.458L277.719,97.458z M277.738,104.459c-7.553,0-9.786,4.139-9.786,9.163
	c0,5.057,2.233,9.194,9.786,9.194c7.487,0,9.751-4.138,9.751-9.194C287.489,108.598,285.225,104.459,277.738,104.459
	L277.738,104.459z M243.485,126.105v-5.285H211.5l-6.6-5.177V97.458h-8.886l-6,3.563v22.236l8.024,6.711h40.121L243.485,126.105
	L243.485,126.105z M145.994,123.257h33.709l-5.887,6.711h-40.422l-7.612-6.711v-20.1l7.612-5.699h46.309l-4.125,6.711h-29.584
	l-4.987,4.793h30.898l-5.476,6.85h-25.422v2.42L145.994,123.257L145.994,123.257z M69.012,106.605v-6.861l4.012-2.286h43.609v2.851
	L92.296,120.82h24.336v7.572l-3.299,1.575H69.012v-3.862l21.602-19.5H69.012L69.012,106.605z M28.89,97.458
	c24.936,0,28.085,7.275,28.085,16.236c0,8.963-3.562,16.273-28.085,16.273c-24.485,0-28.085-7.311-28.085-16.273
	C0.805,104.733,3.955,97.458,28.89,97.458L28.89,97.458z M28.875,104.53c-7.524,0-9.792,4.141-9.792,9.166
	c0,5.061,2.267,9.2,9.792,9.2c7.556,0,9.822-4.14,9.822-9.2C38.697,108.671,36.43,104.53,28.875,104.53z"/>
</svg>
